<svg width="980" height="551" xmlns="http://www.w3.org/2000/svg" xmlns:xlink="http://www.w3.org/1999/xlink">
<path fill="#ff595e" d="M 339.52 97.03 Q 339.52 97.03 340.25 95.62 340.99 94.20 343.75 93.37 346.52 92.53 351.71 91.43 356.90 90.32 361.65 89.53 366.41 88.75 371.18 88.13 375.96 87.52 381.00 87.04 386.04 86.55 391.65 86.26 397.26 85.96 403.32 85.93 409.38 85.91 414.93 86.08 420.47 86.26 424.77 86.46 429.08 86.67 432.96 86.93 436.84 87.20 440.74 87.52 444.63 87.83 447.90 88.08 451.16 88.33 454.10 88.61 457.05 88.89 460.26 89.39 463.48 89.90 467.04 90.66 470.60 91.42 473.98 92.23 477.36 93.03 480.37 93.80 483.37 94.58 486.33 95.41 489.28 96.24 492.03 97.04 494.77 97.83 496.89 98.45 499.00 99.06 500.67 99.52 502.34 99.98 504.11 100.42 505.89 100.87 507.82 101.34 509.76 101.81 511.38 102.22 513.00 102.63 514.32 103.00 515.63 103.36 516.82 103.69 518.02 104.02 519.05 104.27 520.09 104.52 521.07 104.73 522.05 104.94 523.54 105.21 525.02 105.48 526.06 105.65 527.09 105.82 528.49 106.00 529.89 106.17 531.00 106.23 532.12 106.29 533.19 106.37 534.26 106.45 536.10 106.66 537.94 106.86 539.60 106.97 541.26 107.09 543.48 107.19 545.71 107.30 547.94 107.37 550.17 107.44 552.44 107.48 554.71 107.52 557.18 107.56 559.66 107.59 562.20 107.61 564.74 107.63 566.88 107.61 569.01 107.59 571.32 107.55 573.63 107.52 577.78 107.46 581.93 107.40 584.70 107.35 587.48 107.30 589.84 107.26 592.21 107.23 594.46 107.21 596.71 107.20 598.65 107.18 600.59 107.17 602.37 107.14 604.15 107.12 605.72 107.08 607.29 107.04 608.94 106.97 610.59 106.90 612.00 106.76 613.41 106.62 614.47 106.52 615.53 106.42 616.61 106.35 617.69 106.28 618.77 106.23 619.84 106.17 621.04 106.11 622.24 106.05 623.67 105.97 625.11 105.90 626.48 105.83 627.84 105.77 628.87 105.73 629.89 105.68 631.07 105.59 632.24 105.50 633.66 105.33 635.08 105.16 637.82 105.93 640.57 106.70 640.57 106.70 640.57 106.71 640.57 106.71 640.57 106.72 638.02 107.93 635.47 109.14 634.04 109.31 632.61 109.48 631.34 109.58 630.07 109.67 629.05 109.72 628.02 109.77 626.67 109.83 625.32 109.89 623.88 109.97 622.45 110.04 621.25 110.10 620.05 110.17 619.00 110.22 617.95 110.27 616.92 110.34 615.89 110.41 614.85 110.50 613.81 110.60 612.29 110.75 610.76 110.90 609.07 110.97 607.38 111.04 605.80 111.08 604.21 111.12 602.42 111.14 600.62 111.17 598.68 111.18 596.74 111.20 594.50 111.21 592.27 111.23 589.91 111.26 587.56 111.30 584.77 111.35 581.98 111.40 577.83 111.46 573.68 111.52 571.37 111.55 569.06 111.59 566.88 111.61 564.71 111.63 562.16 111.61 559.60 111.59 557.12 111.56 554.64 111.52 552.34 111.48 550.04 111.44 547.78 111.37 545.52 111.30 543.25 111.19 540.98 111.08 539.25 110.96 537.52 110.84 536.52 110.73 535.52 110.63 533.72 110.45 531.92 110.28 530.69 110.22 529.47 110.15 527.95 109.96 526.43 109.77 525.37 109.59 524.31 109.41 522.76 109.13 521.21 108.85 520.17 108.63 519.14 108.41 518.05 108.14 516.96 107.87 515.76 107.54 514.55 107.21 513.29 106.86 512.02 106.51 510.42 106.10 508.81 105.69 506.87 105.22 504.92 104.75 503.10 104.29 501.27 103.84 499.58 103.37 497.89 102.90 495.77 102.29 493.65 101.67 490.93 100.88 488.20 100.09 485.29 99.27 482.37 98.45 479.40 97.69 476.44 96.92 473.10 96.13 469.77 95.33 466.31 94.59 462.85 93.85 459.76 93.36 456.67 92.87 453.76 92.59 450.85 92.32 447.58 92.07 444.31 91.82 440.44 91.50 436.57 91.19 432.73 90.93 428.89 90.66 424.61 90.46 420.34 90.26 414.87 90.08 409.40 89.91 403.44 89.93 397.47 89.96 391.95 90.25 386.42 90.54 381.45 91.01 376.47 91.48 371.76 92.09 367.06 92.69 362.39 93.46 357.73 94.23 352.69 95.30 347.66 96.37 345.14 97.11 342.61 97.85 341.07 97.45 339.53 97.05 339.53 97.04 Z" data-drauu_index="0"></path>
</svg>